<?xml version="1.0" standalone="no"?>
<svg xmlns:xlink="http://www.w3.org/1999/xlink" id="wave" style="transform:rotate(180deg); transition: 0.3s" viewBox="0 0 1440 490" version="1.1" xmlns="http://www.w3.org/2000/svg"><defs><linearGradient id="sw-gradient-0" x1="0" x2="0" y1="1" y2="0"><stop stop-color="rgba(189.622, 159.511, 221.304, 1)" offset="0%"/><stop stop-color="rgba(199, 169.692, 216.75, 1)" offset="100%"/></linearGradient></defs><path style="transform:translate(0, 0px); opacity:1" fill="url(#sw-gradient-0)" d="M0,196L80,196C160,196,320,196,480,163.3C640,131,800,65,960,106.2C1120,147,1280,294,1440,302.2C1600,310,1760,180,1920,106.2C2080,33,2240,16,2400,81.7C2560,147,2720,294,2880,294C3040,294,3200,147,3360,73.5C3520,0,3680,0,3840,57.2C4000,114,4160,229,4320,302.2C4480,376,4640,408,4800,375.7C4960,343,5120,245,5280,220.5C5440,196,5600,245,5760,220.5C5920,196,6080,98,6240,98C6400,98,6560,196,6720,204.2C6880,212,7040,131,7200,106.2C7360,82,7520,114,7680,171.5C7840,229,8000,310,8160,302.2C8320,294,8480,196,8640,155.2C8800,114,8960,131,9120,130.7C9280,131,9440,114,9600,98C9760,82,9920,65,10080,49C10240,33,10400,16,10560,73.5C10720,131,10880,261,11040,269.5C11200,278,11360,163,11440,106.2L11520,49L11520,490L11440,490C11360,490,11200,490,11040,490C10880,490,10720,490,10560,490C10400,490,10240,490,10080,490C9920,490,9760,490,9600,490C9440,490,9280,490,9120,490C8960,490,8800,490,8640,490C8480,490,8320,490,8160,490C8000,490,7840,490,7680,490C7520,490,7360,490,7200,490C7040,490,6880,490,6720,490C6560,490,6400,490,6240,490C6080,490,5920,490,5760,490C5600,490,5440,490,5280,490C5120,490,4960,490,4800,490C4640,490,4480,490,4320,490C4160,490,4000,490,3840,490C3680,490,3520,490,3360,490C3200,490,3040,490,2880,490C2720,490,2560,490,2400,490C2240,490,2080,490,1920,490C1760,490,1600,490,1440,490C1280,490,1120,490,960,490C800,490,640,490,480,490C320,490,160,490,80,490L0,490Z"/></svg>